<?xml version="1.0" encoding="utf-8"?>
<!-- Svg Vector Icons : http://www.onlinewebfonts.com/icon -->
<!DOCTYPE svg PUBLIC "-//W3C//DTD SVG 1.1//EN" "http://www.w3.org/Graphics/SVG/1.1/DTD/svg11.dtd">
<svg version="1.1" xmlns="http://www.w3.org/2000/svg" xmlns:xlink="http://www.w3.org/1999/xlink" x="0px" y="0px" viewBox="0 0 256 256" enable-background="new 0 0 256 256" xml:space="preserve">
<metadata> Svg Vector Icons : http://www.onlinewebfonts.com/icon </metadata>
<g><g><g><path fill="#000000" d="M242.8,221L116.4,105.9l5.9-5.9c4.8-4.8,7.4-11.1,7.8-17.4c0.2-0.1,0.5-0.2,0.7-0.3l23.7-14.8c3.2-3.8,3-9.8-0.5-13.2l-41.3-41.4c-3.5-3.5-9.4-3.8-13.2-0.5L84.7,36.1c-0.1,0.2-0.2,0.5-0.3,0.7c-6.3,0.4-12.6,3-17.4,7.8L44.5,67.1c-4.8,4.8-7.4,11.1-7.8,17.4c-0.2,0.1-0.5,0.2-0.7,0.3L12.2,99.7c-3.2,3.8-3,9.8,0.6,13.3l41.3,41.4c3.5,3.5,9.4,3.8,13.2,0.5l14.8-23.8c0.1-0.2,0.2-0.5,0.3-0.7c6.3-0.4,12.6-3,17.4-7.8l6.5-6.6l114.8,126.8c3.3,3.7,8.5,4.3,11.4,1.3l11.6-11.6C247.1,229.5,246.5,224.4,242.8,221z"/></g></g></g>
</svg>